<?xml version="1.0" encoding="UTF-8" standalone="no"?>
<!DOCTYPE svg PUBLIC "-//W3C//DTD SVG 1.1//EN" "http://www.w3.org/Graphics/SVG/1.1/DTD/svg11.dtd">
<svg width="100%" height="100%" viewBox="0 0 709 709" version="1.1" xmlns="http://www.w3.org/2000/svg" xmlns:xlink="http://www.w3.org/1999/xlink" xml:space="preserve" xmlns:serif="http://www.serif.com/" style="fill-rule:evenodd;clip-rule:evenodd;stroke-linejoin:round;stroke-miterlimit:2;">
    <g id="Artboard1" transform="matrix(0.681818,0,0,1.09091,0,0)">
        <rect x="0" y="0" width="1039.37" height="649.606" style="fill:rgb(14,45,63);"/>
        <g id="g1" transform="matrix(1.57794,0,0,1.05222,1693.58,-281.342)">
            <g id="g10" transform="matrix(0.682109,0,0,0.642027,-926.022,364.944)">
                <path id="path1" d="M304.35,377.89C304.35,362.45 291.79,349.88 276.34,349.88C260.89,349.88 248.33,362.45 248.33,377.89C248.33,393.33 260.89,405.9 276.34,405.9C291.79,405.9 304.35,393.33 304.35,377.89Z" style="fill:none;fill-rule:nonzero;"/>
                <g id="g5">
                    <g id="g4">
                        <path id="path2" d="M191.57,209.48C178.07,208.36 167.57,212.48 161.46,217.41C155.35,222.34 153.75,222.98 151.5,222.77C149.25,222.56 144.32,215.48 143.79,207.23C143.25,198.98 146.9,191.27 154.83,187.09C162.76,182.91 167.47,185.05 167.9,180.45C168.33,175.84 164.26,166.63 160.29,162.66C156.33,158.7 145.08,153.66 134.25,161.37C123.42,169.08 112.82,189.71 113.46,208.19C114.1,226.67 121.34,240.17 131.94,248.69C142.55,257.21 157.82,256.89 166.98,250.62C176.14,244.35 184.98,238.57 195.27,242.91C205.56,247.25 209.25,258.98 209.41,265.73C209.57,272.48 207.48,278.91 204.91,281.32C204.91,281.32 194.95,272.64 182.57,273.12C170.19,273.6 158.57,283.41 148.93,284.91C139.29,286.41 134.57,282.77 129.97,279.12C125.36,275.48 121.83,273.01 116.26,274.19C110.69,275.37 104.8,280.73 104.47,289.08C104.15,297.44 110.04,305.26 117.33,308.9C124.62,312.54 134.9,313.61 134.9,313.61C134.9,313.61 131.26,321.97 132.76,333.11C134.26,344.25 142.19,356.79 154.4,367.82C166.61,378.85 181.08,381.75 190.29,382.71C199.5,383.67 203.04,381.75 203.15,377.46C203.26,373.17 202.99,362.35 202.99,359.89L202.99,341.57C202.99,335.62 196.56,330.88 189.41,330.88C182.26,330.88 176.23,336.99 176.23,343.9C176.23,343.9 165.54,341.52 163.08,330.35C160.62,319.18 166.72,310.29 173.69,307.29C180.65,304.29 190.94,307.18 193.3,311.47C195.66,315.76 198.71,322.99 205.57,324.06C212.43,325.13 219.07,321.09 221.96,316.91C224.85,312.73 223.17,306.06 223.17,306.06C223.17,306.06 232.52,298.51 236.27,285.86C240.02,273.22 240.77,248.36 228.56,232.93C216.32,217.52 205.07,210.61 191.57,209.48Z" style="fill:url(#_Linear1);fill-rule:nonzero;"/>
                        <path id="path4" d="M248.46,77.48C239.89,74.8 218.67,76.52 202.6,87.87C186.53,99.23 174.85,113.54 175.17,134.03C175.49,154.52 194.88,177.44 218.67,188.37C242.46,199.3 264.31,192.44 264.31,170.8L264.31,97.51C264.32,89.38 257.03,80.16 248.46,77.48ZM234.96,110.41L234.96,157.35C234.96,159.96 234.21,160.2 232.07,159.34C229.93,158.48 224.14,155.91 217.39,150.13C210.64,144.35 205.6,138.24 207.53,128.17C209.46,118.1 224.19,111.38 228.77,109.53C233.35,107.68 234.96,107.84 234.96,110.41Z" style="fill:url(#_Linear2);fill-rule:nonzero;"/>
                    </g>
                </g>
                <g id="g9">
                    <g id="g8">
                        <path id="path6" d="M361.7,209.48C375.2,208.36 385.7,212.48 391.81,217.41C397.92,222.34 399.52,222.98 401.77,222.77C404.02,222.56 408.95,215.48 409.48,207.23C410.02,198.98 406.37,191.27 398.44,187.09C390.51,182.91 385.8,185.05 385.37,180.45C384.94,175.84 389.01,166.63 392.98,162.66C396.94,158.7 408.19,153.66 419.02,161.37C429.85,169.08 440.45,189.71 439.81,208.19C439.17,226.67 431.93,240.17 421.33,248.69C410.72,257.21 395.45,256.89 386.29,250.62C377.13,244.35 368.29,238.57 358,242.91C347.71,247.25 344.02,258.98 343.86,265.73C343.7,272.48 345.79,278.91 348.36,281.32C348.36,281.32 358.32,272.64 370.7,273.12C383.08,273.6 394.7,283.41 404.34,284.91C413.98,286.41 418.7,282.77 423.3,279.12C427.91,275.48 431.44,273.01 437.01,274.19C442.58,275.37 448.47,280.73 448.8,289.08C449.12,297.44 443.23,305.26 435.94,308.9C428.65,312.54 418.37,313.61 418.37,313.61C418.37,313.61 422.01,321.97 420.51,333.11C419.01,344.25 411.08,356.79 398.87,367.82C386.66,378.85 372.19,381.75 362.98,382.71C353.77,383.67 350.23,381.75 350.12,377.46C350.01,373.17 350.28,362.35 350.28,359.89L350.28,341.57C350.28,335.62 356.71,330.88 363.86,330.88C371.01,330.88 377.04,336.99 377.04,343.9C377.04,343.9 387.73,341.52 390.19,330.35C392.65,319.18 386.55,310.29 379.58,307.29C372.62,304.29 362.33,307.18 359.97,311.47C357.61,315.76 354.56,322.99 347.7,324.06C340.84,325.13 334.2,321.09 331.31,316.91C328.42,312.73 330.1,306.06 330.1,306.06C330.1,306.06 320.75,298.51 317,285.86C313.25,273.22 312.5,248.36 324.71,232.93C336.95,217.52 348.2,210.61 361.7,209.48Z" style="fill:url(#_Linear3);fill-rule:nonzero;"/>
                        <path id="path8" d="M304.8,77.48C313.37,74.8 334.59,76.52 350.66,87.87C366.73,99.23 378.41,113.54 378.09,134.03C377.77,154.52 358.38,177.44 334.59,188.37C310.8,199.3 288.95,192.44 288.95,170.8L288.95,97.51C288.95,89.38 296.23,80.16 304.8,77.48ZM318.3,110.41L318.3,157.35C318.3,159.96 319.05,160.2 321.19,159.34C323.33,158.48 329.12,155.91 335.87,150.13C342.62,144.35 347.66,138.24 345.73,128.17C343.8,118.1 329.07,111.38 324.49,109.53C319.91,107.68 318.3,107.84 318.3,110.41Z" style="fill:url(#_Linear4);fill-rule:nonzero;"/>
                    </g>
                </g>
                <path id="path9" d="M276.41,207.66C276.41,207.66 274.17,223.78 266.94,229.89C259.71,236 246.21,239.05 246.21,239.05C246.21,239.05 259.07,240.34 265.98,246.6C272.89,252.87 274.96,263.31 276.42,270.87C276.42,270.87 279.16,256.25 284.95,249.33C290.74,242.42 306.97,239.26 306.97,239.26C306.97,239.26 291.94,236.07 286.24,230.05C280.52,224.03 276.41,207.66 276.41,207.66Z" style="fill:rgb(247,255,247);fill-rule:nonzero;"/>
            </g>
            <g id="path36" transform="matrix(0.682109,0,0,0.642027,-902.384,364.566)">
                <path d="M241.976,1.329C108.836,1.329 0.906,109.949 0.906,243.929C0.906,357.759 78.656,453.949 183.906,479.439C212.946,486.469 223.336,478.599 221.676,468.419C220.016,458.239 210.056,455.349 205.606,454.379C201.156,453.419 198.216,452.829 198.216,452.829C102.766,432.429 31.126,346.629 31.126,243.879C31.126,125.929 125.526,30.309 241.976,30.309C358.436,30.309 452.836,125.929 452.836,243.879C452.836,340.629 389.316,422.359 302.196,448.599C283.116,454.349 272.726,443.829 272.306,436.969C272.056,432.969 272.206,429.949 273.246,427.019C288.636,416.749 298.766,399.229 298.766,379.329C298.766,347.669 273.106,322.009 241.446,322.009C209.786,322.009 184.126,347.669 184.126,379.329C184.126,410.989 209.786,436.649 241.446,436.649C242.336,436.649 243.216,436.629 244.096,436.589C243.726,443.749 245.576,452.679 249.586,459.259C256.446,470.509 269.406,481.219 289.656,479.829C309.906,478.439 332.416,468.879 332.416,468.879C420.746,432.879 483.056,345.729 483.056,243.929C483.056,109.949 375.116,1.329 241.976,1.329ZM241.976,407.299C226.236,407.299 213.476,394.539 213.476,378.799C213.476,363.059 226.236,350.299 241.976,350.299C257.716,350.299 270.476,363.059 270.476,378.799C270.476,394.539 257.716,407.299 241.976,407.299Z" style="fill:url(#_Linear5);fill-rule:nonzero;"/>
            </g>
        </g>
        <g transform="matrix(2.99753,0,0,1.87345,-770.308,-226.991)">
            <g transform="matrix(0.95,0,0,0.9,14.9065,40.5423)">
                <text x="298.131px" y="405.423px" style="font-family:'Belanosima-Regular', 'Belanosima';font-size:50px;fill:white;stroke:white;stroke-width:0.53px;">Q</text>
            </g>
            <g transform="matrix(0.85,0,0,0.9,50.0284,40.5423)">
                <text x="333.523px" y="405.423px" style="font-family:'Belanosima-Regular', 'Belanosima';font-size:50px;fill:white;stroke:white;stroke-width:0.56px;">W</text>
            </g>
            <g transform="matrix(0.9,0,0,0.9,37.0162,40.5423)">
                <text x="370.162px" y="405.423px" style="font-family:'Belanosima-Regular', 'Belanosima';font-size:50px;fill:white;stroke:white;stroke-width:0.54px;">A</text>
            </g>
            <g transform="matrix(0.8,0,0,0.9,80.5949,40.5423)">
                <text x="402.975px" y="405.423px" style="font-family:'Belanosima-Regular', 'Belanosima';font-size:50px;fill:white;stroke:white;stroke-width:0.57px;">N</text>
            </g>
            <g transform="matrix(0.9,0,0,0.9,43.6486,40.5423)">
                <text x="436.486px" y="405.423px" style="font-family:'Belanosima-Regular', 'Belanosima';font-size:50px;fill:white;stroke:white;stroke-width:0.54px;">D<tspan x="475.494px 508.399px " y="405.423px 405.423px ">ER</tspan></text>
            </g>
            <g transform="matrix(1.05,0,0,0.9,-26.5549,40.5423)">
                <g transform="matrix(50,0,0,50,560.444,405.423)">
                </g>
                <text x="531.098px" y="405.423px" style="font-family:'Belanosima-Regular', 'Belanosima';font-size:50px;fill:white;stroke:white;stroke-width:0.5px;">Y</text>
            </g>
        </g>
    </g>
    <defs>
        <linearGradient id="_Linear1" x1="0" y1="0" x2="1" y2="0" gradientUnits="userSpaceOnUse" gradientTransform="matrix(1.80686e-14,295.083,-295.083,1.80686e-14,171.559,80.5915)"><stop offset="0" style="stop-color:rgb(254,199,156);stop-opacity:1"/><stop offset="1" style="stop-color:rgb(215,130,104);stop-opacity:1"/></linearGradient>
        <linearGradient id="_Linear2" x1="0" y1="0" x2="1" y2="0" gradientUnits="userSpaceOnUse" gradientTransform="matrix(1.80686e-14,295.083,-295.083,1.80686e-14,219.741,80.5915)"><stop offset="0" style="stop-color:rgb(254,199,156);stop-opacity:1"/><stop offset="1" style="stop-color:rgb(215,130,104);stop-opacity:1"/></linearGradient>
        <linearGradient id="_Linear3" x1="0" y1="0" x2="1" y2="0" gradientUnits="userSpaceOnUse" gradientTransform="matrix(1.80686e-14,295.083,-295.083,1.80686e-14,381.702,80.5915)"><stop offset="0" style="stop-color:rgb(254,199,156);stop-opacity:1"/><stop offset="1" style="stop-color:rgb(215,130,104);stop-opacity:1"/></linearGradient>
        <linearGradient id="_Linear4" x1="0" y1="0" x2="1" y2="0" gradientUnits="userSpaceOnUse" gradientTransform="matrix(1.80686e-14,295.083,-295.083,1.80686e-14,333.52,80.5915)"><stop offset="0" style="stop-color:rgb(254,199,156);stop-opacity:1"/><stop offset="1" style="stop-color:rgb(215,130,104);stop-opacity:1"/></linearGradient>
        <linearGradient id="_Linear5" x1="0" y1="0" x2="1" y2="0" gradientUnits="userSpaceOnUse" gradientTransform="matrix(3.02683e-14,494.318,-494.318,3.02683e-14,241.984,10.009)"><stop offset="0" style="stop-color:rgb(203,242,226);stop-opacity:1"/><stop offset="0.13" style="stop-color:rgb(195,236,221);stop-opacity:1"/><stop offset="0.34" style="stop-color:rgb(173,220,209);stop-opacity:1"/><stop offset="0.6" style="stop-color:rgb(137,194,189);stop-opacity:1"/><stop offset="0.89" style="stop-color:rgb(88,158,161);stop-opacity:1"/><stop offset="1" style="stop-color:rgb(67,143,149);stop-opacity:1"/></linearGradient>
    </defs>
</svg>
